<?xml version="1.0" encoding="utf-8"?>
<!-- Generator: Adobe Illustrator 24.0.2, SVG Export Plug-In . SVG Version: 6.00 Build 0)  -->
<svg version="1.1" id="Слой_1" xmlns="http://www.w3.org/2000/svg" xmlns:xlink="http://www.w3.org/1999/xlink" x="0px" y="0px"
	 viewBox="0 0 43.9 43.9" style="enable-background:new 0 0 43.9 43.9;" xml:space="preserve">
<style type="text/css">
	.st0{fill:#626d7a;}
</style>
<path class="st0" d="M42.5,9.1c-0.8-0.5-1.8-0.5-2.7-0.1l-7,3.5V8.7c0-1.5-1.2-2.7-2.7-2.7H2.8C1.3,6,0.1,7.2,0.1,8.7V36
	c0,1.5,1.2,2.7,2.7,2.7h27.3c1.5,0,2.7-1.2,2.7-2.7v-3.8l7,3.5c0.4,0.2,0.8,0.3,1.2,0.3c0.5,0,1-0.1,1.4-0.4
	c0.8-0.5,1.3-1.4,1.3-2.3V11.4C43.8,10.5,43.3,9.6,42.5,9.1z M38.3,28.9l-7-3.5c-1.3-0.7-3-0.1-3.7,1.2c-0.2,0.4-0.3,0.8-0.3,1.2h0
	v5.5H5.6V11.4h21.8v5.5h0c0,0.4,0.1,0.8,0.3,1.2c0.7,1.3,2.3,1.9,3.7,1.2l7-3.5V28.9z"/>
</svg>
