<?xml version="1.0" encoding="utf-8"?>
<!-- Generator: Adobe Illustrator 24.0.2, SVG Export Plug-In . SVG Version: 6.00 Build 0)  -->
<svg version="1.1" id="Слой_1" xmlns="http://www.w3.org/2000/svg" xmlns:xlink="http://www.w3.org/1999/xlink" x="0px" y="0px"
	 viewBox="0 0 43.8788185 43.930336" style="enable-background:new 0 0 43.8788185 43.930336;" xml:space="preserve">
<style type="text/css">
	.st0{fill-rule:evenodd;clip-rule:evenodd;fill:#626d7a;}
</style>
<path class="st0" d="M41.0301628,0.462963H2.5911195c-1.5175185,0-2.745646,1.2281274-2.745646,2.745646v27.456459
	c0,1.517519,1.2281275,2.7456455,2.745646,2.7456455h5.491292v8.2369385c0,1.1100655,0.6677408,2.1127739,1.6946125,2.5364265
	c0.3404598,0.1422272,0.6971197,0.2092209,1.051033,0.2092209c0.7133188,0,1.4156551-0.2789574,1.9411716-0.8044739
	l10.1783838-10.178112h18.08255c1.5175171,0,2.7456474-1.2281265,2.7456474-2.7456455V3.2086089
	C43.7758102,1.6910903,42.5476799,0.462963,41.0301628,0.462963z M38.2845154,27.9194221h-16.473875
	c-0.70261,0-1.4049473,0.2682495-1.9411716,0.8044739l-6.2957659,6.2954903v-4.3543186
	c0-1.5175171-1.2281275-2.7456455-2.7456455-2.7456455h-5.491292V5.9542546h32.9477501V27.9194221z"/>
</svg>
