<?xml version="1.0" encoding="utf-8"?>
<!-- Generator: Adobe Illustrator 24.0.2, SVG Export Plug-In . SVG Version: 6.00 Build 0)  -->
<svg version="1.1" id="Слой_1" xmlns="http://www.w3.org/2000/svg" xmlns:xlink="http://www.w3.org/1999/xlink" x="0px" y="0px"
	 viewBox="0 0 43.9 43.9" style="enable-background:new 0 0 43.9 43.9;" xml:space="preserve">
<style type="text/css">
	.st0{fill:#626d7a;}
</style>
<path class="st0" d="M34.3,44.1c-0.5,0-0.9-0.1-1.3-0.3L22.5,38L12,43.8c-0.9,0.5-2,0.4-2.9-0.2C8.3,43,7.8,42,8,41l2-12.5l-8.6-8.8
	c-0.7-0.7-1-1.8-0.6-2.8C1.1,16,2,15.2,3,15.1l11.8-1.8L20,2c0.5-1,1.4-1.6,2.5-1.6c1.1,0,2,0.6,2.5,1.6l5.3,11.3L42,15.1
	c1,0.2,1.9,0.9,2.2,1.8c0.3,1,0.1,2-0.6,2.8L35,28.5L37,41c0.2,1-0.3,2.1-1.1,2.7C35.4,44,34.9,44.1,34.3,44.1z M22.5,32.2
	c0.5,0,0.9,0.1,1.3,0.3l6.9,3.8L29.4,28c-0.1-0.9,0.1-1.7,0.7-2.3l5.8-6l-8-1.2c-0.9-0.1-1.7-0.7-2.1-1.5l-3.4-7.3l-3.4,7.3
	c-0.4,0.8-1.2,1.4-2.1,1.5l-8,1.2l5.8,6c0.6,0.6,0.9,1.5,0.7,2.3l-1.4,8.3l6.9-3.8C21.6,32.3,22,32.2,22.5,32.2z"/>
</svg>
