<?xml version="1.0" encoding="utf-8"?>
<!-- Generator: Adobe Illustrator 24.0.2, SVG Export Plug-In . SVG Version: 6.00 Build 0)  -->
<svg version="1.1" id="Слой_1" xmlns="http://www.w3.org/2000/svg" xmlns:xlink="http://www.w3.org/1999/xlink" x="0px" y="0px"
	 viewBox="0 0 43.9 43.9" style="enable-background:new 0 0 43.9 43.9;" xml:space="preserve">
<style type="text/css">
	.st0{fill:#626d7a;}
</style>
<g>
	<path class="st0" d="M41.1,7.4H34l-4.7-4.7c-0.5-0.5-1.2-0.8-1.9-0.8H16.5c-0.7,0-1.4,0.3-1.9,0.8L9.9,7.4H2.8
		c-1.5,0-2.7,1.2-2.7,2.7v30c0,1.5,1.2,2.7,2.7,2.7h38.2c1.5,0,2.7-1.2,2.7-2.7v-30C43.8,8.6,42.6,7.4,41.1,7.4z M38.3,37.4H5.6
		V12.8H11c0.7,0,1.4-0.3,1.9-0.8l4.7-4.7h8.7l4.7,4.7c0.5,0.5,1.2,0.8,1.9,0.8h5.5V37.4z"/>
	<path class="st0" d="M21.9,12.8c-6,0-10.9,4.9-10.9,10.9c0,6,4.9,10.9,10.9,10.9c6,0,10.9-4.9,10.9-10.9
		C32.9,17.7,28,12.8,21.9,12.8z M21.9,29.2c-3,0-5.5-2.5-5.5-5.5s2.5-5.5,5.5-5.5c3,0,5.5,2.5,5.5,5.5S25,29.2,21.9,29.2z"/>
</g>
</svg>
