<?xml version="1.0" encoding="utf-8"?>
<!-- Generator: Adobe Illustrator 24.0.2, SVG Export Plug-In . SVG Version: 6.00 Build 0)  -->
<svg version="1.1" id="Слой_1" xmlns="http://www.w3.org/2000/svg" xmlns:xlink="http://www.w3.org/1999/xlink" x="0px" y="0px"
	 viewBox="0 0 43.8788185 43.930336" style="enable-background:new 0 0 43.8788185 43.930336;" xml:space="preserve">
<style type="text/css">
	.st0{fill:#626d7a;}
</style>
<path class="st0" d="M21.8106403,0.462963c-12.1302633,0-21.9651661,9.8349037-21.9651661,21.965168
	s9.8349037,21.965168,21.9651661,21.965168s21.9651699-9.8349037,21.9651699-21.965168S33.9409065,0.462963,21.8106403,0.462963z
	 M13.86059,36.8534813c0.9143-3.5501213,4.1105061-6.1884136,7.9500504-6.1884136
	c3.8394775,0,7.0356846,2.6382923,7.9499836,6.1884136c-2.3596077,1.3030815-5.0648918,2.0485229-7.9499836,2.0485229
	C18.9254818,38.9020042,16.2201977,38.1565628,13.86059,36.8534813z M21.8106403,22.4281311
	c-1.5175514,0-2.7456455-1.2281284-2.7456455-2.7456474c0-1.5175171,1.2280941-2.7456455,2.7456455-2.7456455
	c1.5174847,0,2.7456474,1.2281284,2.7456474,2.7456455C24.5562878,21.2000027,23.328125,22.4281311,21.8106403,22.4281311z
	 M34.254425,33.2014961c-1.4691963-3.2041683-4.1129799-5.7433414-7.4055233-7.0464268
	c1.9331741-1.5068092,3.1986771-3.8315487,3.1986771-6.4725857c0-4.5473375-3.6868877-8.2369366-8.2369385-8.2369366
	c-4.5501175,0-8.2369375,3.689599-8.2369375,8.2369366c0,2.641037,1.2654352,4.9657764,3.198678,6.4725857
	c-3.2926121,1.3030853-5.9363947,3.8422585-7.4055901,7.0464268c-2.5043035-2.8903408-4.0300255-6.6494064-4.0300255-10.773365
	c0-9.0976982,7.3761444-16.473877,16.473875-16.473877c9.0976639,0,16.473875,7.3761783,16.473875,16.473877
	C38.2845154,26.5520897,36.758728,30.3111553,34.254425,33.2014961z"/>
</svg>
