<?xml version="1.0" encoding="utf-8"?>
<!-- Generator: Adobe Illustrator 24.0.2, SVG Export Plug-In . SVG Version: 6.00 Build 0)  -->
<svg version="1.1" id="Слой_1" xmlns="http://www.w3.org/2000/svg" xmlns:xlink="http://www.w3.org/1999/xlink" x="0px" y="0px"
	 viewBox="0 0 43.9 43.9" style="enable-background:new 0 0 43.9 43.9;" xml:space="preserve">
<style type="text/css">
	.st0{fill:#626d7a;}
</style>
<g>
	<path class="st0" d="M27.4,38.3H16.5c-1.5,0-2.7,1.2-2.7,2.7c0,1.5,1.2,2.7,2.7,2.7h10.9c1.5,0,2.7-1.2,2.7-2.7
		C30.1,39.6,28.9,38.3,27.4,38.3z"/>
	<path class="st0" d="M22,0.1C11.4,0.1,2.8,8.7,2.8,19.2c0,6.4,3.2,12.1,8.1,15.6c0.4,0.3,1,0.8,2.8,0.8c1.8,0,14.9,0,16.4,0
		c1.5,0,2.4-0.5,2.8-0.8c4.9-3.5,8.1-9.1,8.1-15.6C41.1,8.7,32.5,0.1,22,0.1z M30.1,30.1h-5.4V19.2c0-1.5-1.2-2.7-2.7-2.7
		c-1.5,0-2.7,1.2-2.7,2.7v10.9h-5.4c-3.3-2.5-5.5-6.4-5.5-10.9c0-7.5,6.1-13.7,13.7-13.7c7.5,0,13.7,6.1,13.7,13.7
		C35.6,23.7,33.4,27.7,30.1,30.1z"/>
</g>
</svg>
