<?xml version="1.0" encoding="utf-8"?>
<!-- Generator: Adobe Illustrator 24.0.2, SVG Export Plug-In . SVG Version: 6.00 Build 0)  -->
<svg version="1.1" id="Слой_1" xmlns="http://www.w3.org/2000/svg" xmlns:xlink="http://www.w3.org/1999/xlink" x="0px" y="0px"
	 viewBox="0 0 43.9 43.9" style="enable-background:new 0 0 43.9 43.9;" xml:space="preserve">
<style type="text/css">
	.st0{fill:#626d7a;}
</style>
<g>
	<path class="st0" d="M36.3,16.5h-2.7V11c0-6-4.9-10.9-10.9-10.9S11.7,5,11.7,11v5.5H9c-1.5,0-2.7,1.2-2.7,2.7v21.8
		c0,1.5,1.2,2.7,2.7,2.7h27.3c1.5,0,2.7-1.2,2.7-2.7V19.2C39,17.7,37.8,16.5,36.3,16.5z M17.2,11c0-3,2.4-5.5,5.5-5.5
		c3,0,5.5,2.4,5.5,5.5v5.5H17.2V11z M33.6,38.3H11.7V22h21.8V38.3z"/>
	<circle class="st0" cx="22.6" cy="30.1" r="2.7"/>
</g>
</svg>
