<?xml version="1.0" encoding="utf-8"?>
<!-- Generator: Adobe Illustrator 24.0.2, SVG Export Plug-In . SVG Version: 6.00 Build 0)  -->
<svg version="1.1" id="Слой_1" xmlns="http://www.w3.org/2000/svg" xmlns:xlink="http://www.w3.org/1999/xlink" x="0px" y="0px"
	 viewBox="0 0 43.8788185 43.930336" style="enable-background:new 0 0 43.8788185 43.930336;" xml:space="preserve">
<style type="text/css">
	.st0{fill:#626d7a;}
</style>
<path class="st0" d="M38.2845154,22.9322319v-5.9953938c0-9.0974226-7.3761959-16.473875-16.473875-16.473875
	c-9.0977154,0-16.473875,7.3764524-16.473875,16.473875v5.9953938c-3.1934786,1.1342258-5.4912915,4.1508675-5.4912915,7.7328358
	v5.491293c0,4.5503578,3.6868355,8.2369385,8.2369385,8.2369385h5.491291c1.5177755,0,2.7456465-1.2278557,2.7456465-2.7456474
	v-16.473875c0-1.517519-1.2278709-2.7456455-2.7456465-2.7456455h-2.7456455v-5.491293
	c0-6.0648565,4.9174519-10.982584,10.982583-10.982584s10.982584,4.917727,10.982584,10.982584v5.491293h-2.7456455
	c-1.5175362,0-2.7456455,1.2281265-2.7456455,2.7456455v16.473875c0,1.5177917,1.2281094,2.7456474,2.7456455,2.7456474h5.491293
	c4.5503387,0,8.2369385-3.6865807,8.2369385-8.2369385v-5.491293
	C43.7758102,27.0830994,41.4779587,24.0664577,38.2845154,22.9322319z M10.8280573,38.9020042H8.0824118
	c-1.5175366,0-2.7456465-1.2278519-2.7456465-2.7456436v-5.491293c0-1.5175171,1.2281098-2.7456455,2.7456465-2.7456455h2.7456455
	V38.9020042z M38.2845154,36.1563606c0,1.5177917-1.2278709,2.7456436-2.7456436,2.7456436h-2.7456474V27.9194221h2.7456474
	c1.5177727,0,2.7456436,1.2281284,2.7456436,2.7456455V36.1563606z"/>
</svg>
