<?xml version="1.0" encoding="utf-8"?>
<!-- Generator: Adobe Illustrator 24.0.2, SVG Export Plug-In . SVG Version: 6.00 Build 0)  -->
<svg version="1.1" id="Слой_1" xmlns="http://www.w3.org/2000/svg" xmlns:xlink="http://www.w3.org/1999/xlink" x="0px" y="0px"
	 viewBox="0 0 43.8788185 43.930336" style="enable-background:new 0 0 43.8788185 43.930336;" xml:space="preserve">
<style type="text/css">
	.st0{fill:#626d7a;}
</style>
<path class="st0" d="M42.9700966,20.4869595l-5.4056244-5.4056282c-0.0483246-0.0507946-0.0939026-0.0963726-0.1446991-0.1446962
	L23.7505779,1.2674372C23.214386,0.7312126,22.5117416,0.462963,21.8091316,0.462963
	c-0.7023373,0-1.4049473,0.2682496-1.9411716,0.8044742L0.6484382,20.4869595
	c-1.0724492,1.0751934-1.0189092,2.7563534,0.0535401,3.8288021c1.075195,1.0779419,2.6465282,1.2360897,3.7217231,0.1608944
	l0.9384952-0.9384613v18.109457c0,1.5177917,1.2280941,2.7456474,2.745646,2.7456474h27.456459
	c1.5174866,0,2.7456474-1.2278557,2.7456474-2.7456474V23.5917358l0.8203659,0.820673
	c1.0727234,1.0724487,2.7107735,0.9758034,3.7859688-0.0966473C43.989006,23.2433128,44.0452919,21.5594082,42.9700966,20.4869595z
	 M32.8186569,38.9020042h-8.2369385v-8.2369366h-5.491293v8.2369366H10.853488V18.0469036L21.8091316,7.0939727
	l11.0095253,11.0064697V38.9020042z"/>
</svg>
