<?xml version="1.0" encoding="utf-8"?>
<!-- Generator: Adobe Illustrator 24.0.2, SVG Export Plug-In . SVG Version: 6.00 Build 0)  -->
<svg version="1.1" id="Слой_1" xmlns="http://www.w3.org/2000/svg" xmlns:xlink="http://www.w3.org/1999/xlink" x="0px" y="0px"
	 viewBox="0 0 43.8788185 43.930336" style="enable-background:new 0 0 43.8788185 43.930336;" xml:space="preserve">
<style type="text/css">
	.st0{fill:#626d7a;}
</style>
<g>
	<path class="st0" d="M41.1589317,0.4060778H2.7198877c-1.5175185,0-2.745646,1.2281274-2.745646,2.745646v38.4390411
		c0,1.5175171,1.2281274,2.7456474,2.745646,2.7456474h38.439045c1.5175171,0,2.7456436-1.2281303,2.7456436-2.7456474V3.1517239
		C43.9045753,1.6342052,42.6764488,0.4060778,41.1589317,0.4060778z M38.4132843,38.8451195H5.4655337V5.8973699h32.9477501
		V38.8451195z"/>
	<path class="st0" d="M19.1937637,14.1343079h13.7282295c1.5175171,0,2.7456474-1.2281275,2.7456474-2.7456465
		s-1.2281303-2.7456455-2.7456474-2.7456455H19.1937637c-1.517519,0-2.7456455,1.2281275-2.7456455,2.7456455
		S17.6762447,14.1343079,19.1937637,14.1343079z"/>
	<circle class="st0" cx="10.9568253" cy="11.3886614" r="2.745646"/>
</g>
</svg>
