<?xml version="1.0" encoding="utf-8"?>
<!-- Generator: Adobe Illustrator 24.0.2, SVG Export Plug-In . SVG Version: 6.00 Build 0)  -->
<svg version="1.1" id="Слой_1" xmlns="http://www.w3.org/2000/svg" xmlns:xlink="http://www.w3.org/1999/xlink" x="0px" y="0px"
	 viewBox="0 0 43.8788185 43.930336" style="enable-background:new 0 0 43.8788185 43.930336;" xml:space="preserve">
<style type="text/css">
	.st0{fill:#626d7a;}
</style>
<g>
	<path class="st0" d="M10.2347336,41.5907669c0,1.5175171,1.2281275,2.7456474,2.7456455,2.7456474h21.9651661
		c1.5175209,0,2.7456474-1.2281303,2.7456474-2.7456474V11.3886614h-27.456459V41.5907669z M15.7260256,16.8799534h16.473877
		v21.9651661h-16.473877V16.8799534z"/>
	<path class="st0" d="M40.4368401,3.1517239H29.4542542c0-1.5175186-1.2281265-2.745646-2.7456455-2.745646h-5.491291
		c-1.517519,0-2.7456474,1.2281274-2.7456474,2.745646H7.4890876c-1.5175185,0-2.745646,1.2281275-2.745646,2.745646
		s1.2281275,2.745646,2.745646,2.745646h32.9477539c1.5175171,0,2.7456436-1.2281275,2.7456436-2.745646
		S41.9543571,3.1517239,40.4368401,3.1517239z"/>
</g>
</svg>
