<?xml version="1.0" encoding="utf-8"?>
<!-- Generator: Adobe Illustrator 24.0.2, SVG Export Plug-In . SVG Version: 6.00 Build 0)  -->
<svg version="1.1" id="Слой_1" xmlns="http://www.w3.org/2000/svg" xmlns:xlink="http://www.w3.org/1999/xlink" x="0px" y="0px"
	 viewBox="0 0 43.8788185 43.930336" style="enable-background:new 0 0 43.8788185 43.930336;" xml:space="preserve">
<style type="text/css">
	.st0{fill:#626d7a;}
</style>
<g>
	<path class="st0" d="M43.3145752,39.9356041c-0.2573013-0.3860359-6.4778366-9.4595737-21.5039005-9.4595737
		c-15.0261297,0-21.246666,9.0735378-21.5038986,9.4595737c-0.8421229,1.2629967-0.4989172,2.9655724,0.7613343,3.8073883
		c1.2602515,0.839344,2.9655721,0.4988823,3.8074205-0.7613678c0.0482898-0.0697403,4.8155551-7.0143013,16.9351444-7.0143013
		c11.9531345,0,16.7473087,6.7460518,16.9351444,7.0143013c0.5307007,0.793766,1.3994217,1.2226372,2.2898674,1.2226372
		c0.5199928,0,1.0509987-0.1501884,1.5174866-0.4612694C43.8134232,42.9011765,44.1566277,41.1986008,43.3145752,39.9356041z"/>
	<path class="st0" d="M21.8106747,27.7303848c6.0651321,0,10.982584-4.9147072,10.982584-10.982584v-5.491292
		c0-6.0678773-4.9174519-10.982584-10.982584-10.982584s-10.982584,4.9147062-10.982584,10.982584v5.491292
		C10.8280907,22.8156776,15.7455425,27.7303848,21.8106747,27.7303848z M16.3193836,11.2565088
		c0-3.0325661,2.4614372-5.4912915,5.491291-5.4912915c3.0352783,0,5.491293,2.4587255,5.491293,5.4912915v5.491292
		c0,3.0325661-2.4560146,5.491291-5.491293,5.491291c-3.0298538,0-5.491291-2.458725-5.491291-5.491291V11.2565088z"/>
</g>
</svg>
