<?xml version="1.0" encoding="utf-8"?>
<!-- Generator: Adobe Illustrator 24.0.2, SVG Export Plug-In . SVG Version: 6.00 Build 0)  -->
<svg version="1.1" id="Слой_1" xmlns="http://www.w3.org/2000/svg" xmlns:xlink="http://www.w3.org/1999/xlink" x="0px" y="0px"
	 viewBox="0 0 43.9 43.9" style="enable-background:new 0 0 43.9 43.9;" xml:space="preserve">
<style type="text/css">
	.st0{fill:#626d7a;}
</style>
<g>
	<path class="st0" d="M38.3,0.1H5.6c-1.5,0-2.7,1.2-2.7,2.7v38.2c0,1.5,1.2,2.7,2.7,2.7h32.8c1.5,0,2.7-1.2,2.7-2.7V2.8
		C41.1,1.3,39.8,0.1,38.3,0.1z M35.6,38.3H8.3V5.6h27.3V38.3z"/>
	<path class="st0" d="M16.5,30.1h10.9c1.5,0,2.7-1.2,2.7-2.7c0-1.5-1.2-2.7-2.7-2.7H16.5c-1.5,0-2.7,1.2-2.7,2.7
		C13.8,28.9,15,30.1,16.5,30.1z"/>
	<path class="st0" d="M16.5,19.2H22c1.5,0,2.7-1.2,2.7-2.7c0-1.5-1.2-2.7-2.7-2.7h-5.5c-1.5,0-2.7,1.2-2.7,2.7
		C13.8,18,15,19.2,16.5,19.2z"/>
</g>
</svg>
